<?xml version="1.0" encoding="UTF-8"?>
<svg version="1.1" xmlns="http://www.w3.org/2000/svg" width="257" height="256">
<path d="M0 0 C2.22043602 -0.00968777 4.43993671 -0.04080104 6.66015625 -0.07226562 C23.94855914 -0.20253734 40.93739755 3.07620015 53.9375 15.40820312 C60.32666166 22.95610443 61.25346287 31.69400349 60.70605469 41.2578125 C59.14293774 55.48708333 48.44501588 68.69741132 39.48828125 79.24023438 C39.05 79.76198242 38.61171875 80.28373047 38.16015625 80.82128906 C32.19852821 87.91710046 26.09606066 94.86133353 19.76074219 101.6262207 C17.16702328 104.39861193 14.65027828 107.21314642 12.18359375 110.09960938 C8.28828844 114.57347817 4.02793975 118.59146945 -0.32421875 122.61523438 C-1.8308719 124.018727 -3.33738887 125.42236583 -4.84375 126.82617188 C-5.50093018 127.43509277 -6.15811035 128.04401367 -6.83520508 128.67138672 C-8.0822782 129.83837258 -9.30402521 131.03254083 -10.51171875 132.24023438 C11.26828125 132.24023438 33.04828125 132.24023438 55.48828125 132.24023438 C54.49828125 144.12023437 54.49828125 144.12023437 53.48828125 156.24023438 C17.18828125 156.24023438 -19.11171875 156.24023438 -56.51171875 156.24023438 C-56.51171875 133.31195899 -56.51171875 133.31195899 -47.39111328 124.09790039 C-46.81474121 123.56865967 -46.23836914 123.03941895 -45.64453125 122.49414062 C-44.990896 121.88900635 -44.33726074 121.28387207 -43.66381836 120.66040039 C-42.99487549 120.04737061 -42.32593262 119.43434082 -41.63671875 118.80273438 C-40.22300378 117.4912626 -38.81023707 116.17876786 -37.3984375 114.86523438 C-36.72731934 114.24132812 -36.05620117 113.61742187 -35.36474609 112.97460938 C-29.71507488 107.68669577 -24.41155386 102.2027149 -19.3828125 96.32617188 C-17.22688767 93.92269827 -14.94621502 91.68385246 -12.63671875 89.42773438 C-8.30508303 85.14860333 -4.45009955 80.64156008 -0.66015625 75.88085938 C1.3060197 73.46425039 3.35913488 71.19994592 5.48828125 68.92773438 C8.84076751 65.1982617 11.63809799 61.24874739 14.36328125 57.05273438 C14.74484375 56.47031982 15.12640625 55.88790527 15.51953125 55.2878418 C19.31217167 49.29618617 21.11759649 44.36321034 20.08203125 37.34960938 C18.90485891 33.16754973 16.14152573 31.20790724 12.51953125 29.08789062 C-4.26369421 20.28922205 -25.67311004 25.86331346 -43.13354492 29.78125 C-45.51171875 30.24023438 -45.51171875 30.24023438 -48.51171875 30.24023438 C-47.19171875 21.66023438 -45.87171875 13.08023438 -44.51171875 4.24023438 C-39.87109375 3.52867188 -39.87109375 3.52867188 -35.13671875 2.80273438 C-34.18361816 2.65521729 -33.23051758 2.5077002 -32.24853516 2.35571289 C-21.47110911 0.72200071 -10.89588097 0.02862315 0 0 Z " fill="#EBAE41" transform="translate(187.51171875,49.759765625)"/>
<path d="M0 0 C1.19903961 -0.0065863 1.19903961 -0.0065863 2.42230225 -0.01330566 C16.90443923 -0.00949307 30.67207566 1.53997362 42.23046875 11.01171875 C49.21348135 18.29774176 50.53673983 27.03557218 50.41796875 36.69921875 C49.85281592 45.92293945 46.33908194 53.18694312 40.2109375 60.078125 C33.15478298 66.28221558 24.31667022 69.31685958 15.2109375 71.078125 C26.99897599 93.4224989 26.99897599 93.4224989 39.40332031 115.4284668 C39.85030273 116.19715088 40.29728516 116.96583496 40.7578125 117.7578125 C41.13776367 118.40476074 41.51771484 119.05170898 41.90917969 119.71826172 C43.78288475 123.1149671 45.47609583 126.60844166 47.2109375 130.078125 C36.3209375 130.078125 25.4309375 130.078125 14.2109375 130.078125 C12.6846875 126.38625 11.1584375 122.694375 9.5859375 118.890625 C2.79713362 102.69352633 -4.74754977 86.83741194 -12.76757812 71.21289062 C-13.0922406 70.57635559 -13.41690308 69.93982056 -13.75140381 69.28399658 C-14.66118721 67.50360816 -15.5779531 65.72679285 -16.49511719 63.95019531 C-17.7890625 61.078125 -17.7890625 61.078125 -17.7890625 58.078125 C-16.95097046 58.10169067 -16.95097046 58.10169067 -16.09594727 58.12573242 C-13.5145926 58.18887424 -10.9334012 58.22736204 -8.3515625 58.265625 C-7.47306641 58.29076172 -6.59457031 58.31589844 -5.68945312 58.34179688 C1.70250014 58.42362662 8.57957929 57.35823676 14.5859375 52.765625 C18.77577038 48.47603419 20.73319128 44.26085935 21.265625 38.23046875 C21.16214325 34.15772259 20.26080919 30.60807354 18.2109375 27.078125 C12.96351696 22.47556819 6.93930888 21.95989873 0.2578125 21.76171875 C-0.95036133 21.72361084 -2.15853516 21.68550293 -3.40332031 21.64624023 C-4.94856691 21.60267367 -6.49381447 21.55914103 -8.0390625 21.515625 C-10.67025664 21.43787846 -13.30144118 21.35984821 -15.93261719 21.28149414 C-18.21809896 21.21370443 -20.50358073 21.14591471 -22.7890625 21.078125 C-23.31704723 37.78434285 -23.81236569 54.49083143 -24.22756958 71.20025635 C-24.28912459 73.67437066 -24.35136408 76.14846683 -24.41381836 78.62255859 C-24.45557265 80.27832016 -24.49732069 81.93408187 -24.5390625 83.58984375 C-24.55969254 84.40815674 -24.58032257 85.22646973 -24.60157776 86.06958008 C-24.70797537 90.30365952 -24.81251868 94.53777387 -24.9140625 98.77197266 C-25.01478854 102.96628351 -25.1201654 107.16045426 -25.22875977 111.35456848 C-25.26876768 112.93345351 -25.30703356 114.51238371 -25.34350586 116.09135437 C-25.39383825 118.262214 -25.45008978 120.43284181 -25.5078125 122.60351562 C-25.53810547 123.8341272 -25.56839844 125.06473877 -25.59960938 126.3326416 C-25.7890625 129.078125 -25.7890625 129.078125 -26.7890625 130.078125 C-28.93465077 130.16588105 -31.08310671 130.18507719 -33.23046875 130.17578125 C-34.53564453 130.17255859 -35.84082031 130.16933594 -37.18554688 130.16601562 C-38.5742194 130.15765901 -39.96289127 130.14919405 -41.3515625 130.140625 C-42.74413906 130.13561166 -44.13671731 130.13104847 -45.52929688 130.12695312 C-48.9492612 130.11511934 -52.36914094 130.0986338 -55.7890625 130.078125 C-55.87042884 123.2771841 -55.64361733 116.55290201 -55.16796875 109.76953125 C-55.03618122 107.80062614 -54.90451248 105.83171308 -54.77294922 103.86279297 C-54.70396423 102.84715271 -54.63497925 101.83151245 -54.56390381 100.78509521 C-53.33281472 82.55443165 -52.22682282 64.34721867 -51.7890625 46.078125 C-51.75779266 44.78512482 -51.75779266 44.78512482 -51.72589111 43.46600342 C-51.3862455 29.3372857 -51.07883331 15.20794609 -50.7890625 1.078125 C-45.45874594 0.93225899 -40.1283469 0.7900588 -34.79785156 0.65087891 C-32.99444101 0.60331994 -31.19105406 0.55485552 -29.38769531 0.50537109 C-19.59218355 0.2372258 -9.79946373 0.02802275 0 0 Z " fill="#D5D4D4" transform="translate(64.7890625,75.921875)"/>
</svg>
